# xmcd
#
# Track frame offsets:
# 150
# 5398
# 12379
# 26112
# 32765
# 41399
# 46244
# 52956
# 64125
#
# Disc length: 906 seconds
#
#
# Revision: 0
# Processed by: cddbd v1.5.2PL0 Copyright (c) Steve Scherf et al.
# Submitted via: FreeRIP 2.943 
#
DISCID=69038809
DTITLE=melvins - 1984 demos
DYEAR=1984
DGENRE=Grunge
TTITLE0=forgotten principles
TTITLE1=i don't need your money
TTITLE2=bang my head
TTITLE3=i never knew
TTITLE4=snake appeal
TTITLE5=never the same
TTITLE6=give up
TTITLE7=set me straight
TTITLE8=again
EXTD=y
EXTT0=
EXTT1=
EXTT2=
EXTT3=
EXTT4=
EXTT5=
EXTT6=
EXTT7=
EXTT8=
PLAYORDER=
